<?xml version="1.0" encoding="UTF-8"?>
<svg xmlns="http://www.w3.org/2000/svg" xmlns:xlink="http://www.w3.org/1999/xlink" width="60pt" height="60pt" viewBox="0 0 60 60" version="1.2">
<defs>
<clipPath id="clip1">
  <path d="M 1.011719 55 L 58.539062 55 L 58.539062 60 L 1.011719 60 Z M 1.011719 55 "/>
</clipPath>
</defs>
<g id="surface1">
<g clip-path="url(#clip1)" clip-rule="nonzero">
<path style=" stroke:none;fill-rule:nonzero;fill:rgb(27.059937%,29.798889%,32.939148%);fill-opacity:1;" d="M 1.03125 58.964844 L 1.03125 56.898438 C 1.03125 56.324219 1.492188 55.863281 2.058594 55.863281 L 57.492188 55.863281 C 58.058594 55.863281 58.519531 56.324219 58.519531 56.898438 L 58.519531 58.964844 C 58.519531 59.535156 58.058594 60 57.492188 60 L 2.058594 60 C 1.492188 60 1.03125 59.535156 1.03125 58.964844 Z M 1.03125 58.964844 "/>
</g>
<path style=" stroke:none;fill-rule:nonzero;fill:rgb(90.19928%,90.19928%,90.19928%);fill-opacity:1;" d="M 43.121094 55.863281 L 16.429688 55.863281 L 16.429688 1.035156 C 16.429688 0.464844 16.890625 0 17.457031 0 L 42.09375 0 C 42.660156 0 43.121094 0.464844 43.121094 1.035156 Z M 43.121094 55.863281 "/>
<path style=" stroke:none;fill-rule:nonzero;fill:rgb(27.059937%,29.798889%,32.939148%);fill-opacity:1;" d="M 43.121094 1.035156 C 43.121094 0.464844 42.660156 0 42.09375 0 L 17.457031 0 C 16.890625 0 16.429688 0.464844 16.429688 1.035156 L 16.429688 4.136719 L 43.121094 4.136719 Z M 43.121094 1.035156 "/>
<path style=" stroke:none;fill-rule:nonzero;fill:rgb(0%,66.268921%,69.40918%);fill-opacity:1;" d="M 39.015625 17.585938 C 39.015625 18.199219 38.957031 18.804688 38.839844 19.402344 C 38.71875 20.003906 38.542969 20.585938 38.3125 21.148438 C 38.082031 21.714844 37.796875 22.25 37.457031 22.757812 C 37.121094 23.265625 36.738281 23.738281 36.308594 24.167969 C 35.878906 24.601562 35.414062 24.988281 34.910156 25.328125 C 34.40625 25.667969 33.871094 25.953125 33.3125 26.1875 C 32.75 26.421875 32.175781 26.597656 31.578125 26.71875 C 30.984375 26.835938 30.382812 26.898438 29.777344 26.898438 C 29.171875 26.898438 28.570312 26.835938 27.972656 26.71875 C 27.378906 26.597656 26.800781 26.421875 26.242188 26.1875 C 25.679688 25.953125 25.148438 25.667969 24.644531 25.328125 C 24.140625 24.988281 23.671875 24.601562 23.242188 24.167969 C 22.816406 23.738281 22.433594 23.265625 22.09375 22.757812 C 21.757812 22.25 21.472656 21.714844 21.242188 21.148438 C 21.007812 20.585938 20.832031 20.003906 20.714844 19.402344 C 20.597656 18.804688 20.539062 18.199219 20.539062 17.585938 C 20.539062 16.976562 20.597656 16.371094 20.714844 15.769531 C 20.832031 15.171875 21.007812 14.589844 21.242188 14.023438 C 21.472656 13.457031 21.757812 12.921875 22.09375 12.414062 C 22.433594 11.90625 22.816406 11.433594 23.242188 11.003906 C 23.671875 10.570312 24.140625 10.183594 24.644531 9.84375 C 25.148438 9.503906 25.679688 9.21875 26.242188 8.984375 C 26.800781 8.75 27.378906 8.574219 27.972656 8.453125 C 28.570312 8.335938 29.171875 8.277344 29.777344 8.277344 C 30.382812 8.277344 30.984375 8.335938 31.578125 8.453125 C 32.175781 8.574219 32.75 8.75 33.3125 8.984375 C 33.871094 9.21875 34.40625 9.503906 34.910156 9.84375 C 35.414062 10.183594 35.878906 10.570312 36.308594 11.003906 C 36.738281 11.433594 37.121094 11.90625 37.457031 12.414062 C 37.796875 12.921875 38.082031 13.457031 38.3125 14.023438 C 38.542969 14.589844 38.71875 15.171875 38.839844 15.769531 C 38.957031 16.371094 39.015625 16.976562 39.015625 17.585938 Z M 39.015625 17.585938 "/>
<path style=" stroke:none;fill-rule:nonzero;fill:rgb(100%,100%,100%);fill-opacity:1;" d="M 33.882812 15.515625 L 31.828125 15.515625 L 31.828125 13.449219 C 31.828125 12.878906 31.371094 12.414062 30.804688 12.414062 L 28.75 12.414062 C 28.183594 12.414062 27.722656 12.878906 27.722656 13.449219 L 27.722656 15.515625 L 25.671875 15.515625 C 25.105469 15.515625 24.644531 15.980469 24.644531 16.550781 L 24.644531 18.621094 C 24.644531 19.191406 25.105469 19.65625 25.671875 19.65625 L 27.722656 19.65625 L 27.722656 21.722656 C 27.722656 22.296875 28.183594 22.757812 28.75 22.757812 L 30.804688 22.757812 C 31.371094 22.757812 31.828125 22.296875 31.828125 21.722656 L 31.828125 19.65625 L 33.882812 19.65625 C 34.449219 19.65625 34.910156 19.191406 34.910156 18.621094 L 34.910156 16.550781 C 34.910156 15.980469 34.449219 15.515625 33.882812 15.515625 Z M 33.882812 15.515625 "/>
<path style=" stroke:none;fill-rule:nonzero;fill:rgb(0%,66.268921%,69.40918%);fill-opacity:1;" d="M 23.617188 39.308594 L 35.9375 39.308594 L 35.9375 55.863281 L 23.617188 55.863281 Z M 23.617188 39.308594 "/>
<path style=" stroke:none;fill-rule:nonzero;fill:rgb(100%,100%,100%);fill-opacity:1;" d="M 28.75 39.308594 L 30.804688 39.308594 L 30.804688 55.863281 L 28.75 55.863281 Z M 28.75 39.308594 "/>
<path style=" stroke:none;fill-rule:nonzero;fill:rgb(27.059937%,29.798889%,32.939148%);fill-opacity:1;" d="M 16.429688 31.035156 L 43.121094 31.035156 L 43.121094 33.101562 L 16.429688 33.101562 Z M 16.429688 31.035156 "/>
<path style=" stroke:none;fill-rule:nonzero;fill:rgb(79.998779%,79.998779%,79.998779%);fill-opacity:1;" d="M 16.429688 55.863281 L 2.058594 55.863281 L 2.058594 16.550781 C 2.058594 15.410156 2.976562 14.484375 4.113281 14.484375 L 16.429688 14.484375 Z M 16.429688 55.863281 "/>
<path style=" stroke:none;fill-rule:nonzero;fill:rgb(100%,100%,100%);fill-opacity:1;" d="M 6.164062 18.621094 L 12.324219 18.621094 L 12.324219 33.101562 L 6.164062 33.101562 Z M 6.164062 18.621094 "/>
<path style=" stroke:none;fill-rule:nonzero;fill:rgb(100%,100%,100%);fill-opacity:1;" d="M 6.164062 37.242188 L 12.324219 37.242188 L 12.324219 51.722656 L 6.164062 51.722656 Z M 6.164062 37.242188 "/>
<path style=" stroke:none;fill-rule:nonzero;fill:rgb(79.998779%,79.998779%,79.998779%);fill-opacity:1;" d="M 57.492188 55.863281 L 43.121094 55.863281 L 43.121094 14.484375 L 55.441406 14.484375 C 56.574219 14.484375 57.492188 15.410156 57.492188 16.550781 Z M 57.492188 55.863281 "/>
<path style=" stroke:none;fill-rule:nonzero;fill:rgb(100%,100%,100%);fill-opacity:1;" d="M 47.226562 18.621094 L 53.386719 18.621094 L 53.386719 33.101562 L 47.226562 33.101562 Z M 47.226562 18.621094 "/>
<path style=" stroke:none;fill-rule:nonzero;fill:rgb(100%,100%,100%);fill-opacity:1;" d="M 47.226562 37.242188 L 53.386719 37.242188 L 53.386719 51.722656 L 47.226562 51.722656 Z M 47.226562 37.242188 "/>
<path style=" stroke:none;fill-rule:nonzero;fill:rgb(27.059937%,29.798889%,32.939148%);fill-opacity:1;" d="M 22.589844 38.277344 L 36.960938 38.277344 L 36.960938 40.34375 L 22.589844 40.34375 Z M 22.589844 38.277344 "/>
</g>
</svg>
